<svg width="32" height="32" viewBox="0 0 32 32" fill="none" xmlns="http://www.w3.org/2000/svg">
<path fill-rule="evenodd" clip-rule="evenodd" d="M16.1998 4.82259C14.0972 4.82259 12.0806 5.65787 10.5938 7.14467C9.34056 8.39793 8.55022 10.0276 8.33285 11.7679C8.72116 11.8219 9.084 12.0009 9.3644 12.2813C9.70415 12.621 9.89502 13.0818 9.89502 13.5623V21.6787C9.89502 22.1592 9.70415 22.62 9.3644 22.9598C9.02465 23.2995 8.56385 23.4904 8.08337 23.4904H7.27173C6.14546 23.4904 5.06533 23.043 4.26894 22.2466C3.47255 21.4502 3.02515 20.3701 3.02515 19.2438V15.9972C3.02515 14.871 3.47255 13.7908 4.26894 12.9944C4.83496 12.4284 5.54431 12.0387 6.31168 11.8606C6.51925 9.55383 7.52869 7.38137 9.1796 5.73046C11.0415 3.86858 13.5667 2.82259 16.1998 2.82259C18.8329 2.82259 21.3582 3.86858 23.22 5.73046C24.871 7.38137 25.8804 9.55384 26.088 11.8606C26.8553 12.0387 27.5647 12.4284 28.1307 12.9944C28.9271 13.7908 29.3745 14.871 29.3745 15.9972V19.2438C29.3745 20.3701 28.9271 21.4502 28.1307 22.2466C27.5744 22.8029 26.8796 23.1889 26.1274 23.3711C26.1095 24.4724 25.6642 25.5247 24.8841 26.3048C24.0877 27.1012 23.0076 27.5486 21.8813 27.5486H20.2484C20.1177 27.8654 19.9251 28.1566 19.6781 28.4036C19.1861 28.8956 18.5189 29.172 17.8231 29.172H16.1998C15.5041 29.172 14.8368 28.8956 14.3449 28.4036C13.8529 27.9116 13.5765 27.2444 13.5765 26.5487C13.5765 25.8529 13.8529 25.1857 14.3449 24.6937C14.8368 24.2018 15.5041 23.9254 16.1998 23.9254H17.8231C18.5189 23.9254 19.1861 24.2018 19.6781 24.6937C19.925 24.9407 20.1177 25.2319 20.2483 25.5486H21.8813C22.4772 25.5486 23.0486 25.3119 23.4699 24.8906C23.8491 24.5114 24.0788 24.0106 24.1209 23.4798C23.7123 23.4355 23.3286 23.2531 23.0352 22.9598C22.6955 22.62 22.5046 22.1592 22.5046 21.6787V13.5623C22.5046 13.0818 22.6955 12.621 23.0352 12.2813C23.3156 12.0009 23.6785 11.8219 24.0668 11.7679C23.8494 10.0276 23.0591 8.39793 21.8058 7.14467C20.319 5.65787 18.3025 4.82259 16.1998 4.82259ZM7.27173 13.7507L7.2651 13.7507C6.67166 13.7524 6.10291 13.9889 5.68315 14.4087C5.26184 14.83 5.02515 15.4014 5.02515 15.9972V19.2438C5.02515 19.8396 5.26184 20.4111 5.68315 20.8324C6.10447 21.2537 6.6759 21.4904 7.27173 21.4904H7.89502V13.7506H7.27979L7.27173 13.7507ZM25.1279 13.7507L25.1199 13.7506H24.5046V21.4904H25.1279C25.7237 21.4904 26.2952 21.2537 26.7165 20.8324C27.1378 20.4111 27.3745 19.8396 27.3745 19.2438V15.9972C27.3745 15.4014 27.1378 14.83 26.7165 14.4087C26.2967 13.9889 25.728 13.7524 25.1345 13.7507L25.1279 13.7507ZM16.1998 25.9254C16.0345 25.9254 15.876 25.991 15.7591 26.1079C15.6422 26.2248 15.5765 26.3834 15.5765 26.5487C15.5765 26.714 15.6422 26.8725 15.7591 26.9894C15.876 27.1063 16.0345 27.172 16.1998 27.172H17.8231C17.9884 27.172 18.147 27.1063 18.2639 26.9894C18.3807 26.8725 18.4464 26.714 18.4464 26.5487C18.4464 26.3834 18.3807 26.2248 18.2639 26.1079C18.147 25.991 17.9884 25.9254 17.8231 25.9254H16.1998Z" fill="#66A1FF"/>
<path d="M13.6268 18.983C13.2186 18.611 12.5861 18.6404 12.2141 19.0486C11.8421 19.4568 11.8715 20.0893 12.2797 20.4613C13.3516 21.4381 14.7496 21.9795 16.1998 21.9795C17.65 21.9795 19.048 21.4381 20.1199 20.4613C20.5282 20.0893 20.5575 19.4568 20.1855 19.0486C19.8135 18.6404 19.1811 18.611 18.7728 18.983C18.0693 19.6242 17.1517 19.9795 16.1998 19.9795C15.2479 19.9795 14.3304 19.6242 13.6268 18.983Z" fill="#66A1FF"/>
<path d="M12.9532 12.8166C13.5055 12.8166 13.9532 13.2643 13.9532 13.8166V15.2364C13.9532 15.7887 13.5055 16.2364 12.9532 16.2364C12.401 16.2364 11.9532 15.7887 11.9532 15.2364V13.8166C11.9532 13.2643 12.401 12.8166 12.9532 12.8166Z" fill="#66A1FF"/>
<path d="M20.4464 13.8166C20.4464 13.2643 19.9987 12.8166 19.4464 12.8166C18.8941 12.8166 18.4464 13.2643 18.4464 13.8166V15.2364C18.4464 15.7887 18.8941 16.2364 19.4464 16.2364C19.9987 16.2364 20.4464 15.7887 20.4464 15.2364V13.8166Z" fill="#66A1FF"/>
</svg>
