<svg width="32" height="32" viewBox="0 0 32 32" fill="none" xmlns="http://www.w3.org/2000/svg">
<path fill-rule="evenodd" clip-rule="evenodd" d="M6.57443 16.3742C6.39494 16.0963 6.25005 15.8556 6.14076 15.6667C6.25005 15.4779 6.39494 15.2372 6.57443 14.9593C7.03546 14.2454 7.71819 13.2961 8.60457 12.3507C10.3956 10.4403 12.8996 8.66669 16.0001 8.66669C19.1006 8.66669 21.6046 10.4403 23.3956 12.3507C24.282 13.2961 24.9647 14.2454 25.4257 14.9593C25.6052 15.2372 25.7501 15.4779 25.8594 15.6667C25.7501 15.8556 25.6052 16.0963 25.4257 16.3742C24.9647 17.0881 24.282 18.0373 23.3956 18.9828C21.6046 20.8932 19.1006 22.6668 16.0001 22.6668C12.8996 22.6668 10.3956 20.8932 8.60457 18.9828C7.71819 18.0373 7.03546 17.0881 6.57443 16.3742ZM27.0002 15.6667C27.8946 15.2195 27.8944 15.2192 27.8942 15.2188L27.0002 15.6667ZM27.8942 15.2188C28.035 15.5003 28.0354 15.8324 27.8946 16.114L27.0002 15.6667C27.8946 16.114 27.894 16.1152 27.8938 16.1155L27.8926 16.1179L27.8892 16.1247L27.8778 16.1469C27.8683 16.1655 27.8548 16.1914 27.8374 16.2243C27.8026 16.29 27.7521 16.3835 27.6862 16.5008C27.5544 16.7351 27.3603 17.0652 27.1058 17.4593C26.5981 18.2454 25.8433 19.2962 24.8547 20.3507C22.8957 22.4403 19.8996 24.6668 16.0001 24.6668C12.1006 24.6668 9.10452 22.4403 7.14549 20.3507C6.15685 19.2962 5.40208 18.2454 4.89434 17.4593C4.63985 17.0652 4.4458 16.7351 4.31397 16.5008C4.24803 16.3835 4.19754 16.29 4.16275 16.2243C4.14536 16.1914 4.13188 16.1655 4.12234 16.1469L4.11099 16.1247L4.10754 16.1179L4.10557 16.114L5.00001 15.6667C4.10557 15.2195 4.10619 15.2183 4.10637 15.2179L4.10754 15.2156L4.11099 15.2088L4.12234 15.1866C4.13188 15.168 4.14536 15.142 4.16275 15.1092C4.19754 15.0434 4.24803 14.95 4.31397 14.8327C4.4458 14.5984 4.63985 14.2682 4.89434 13.8742C5.40208 13.088 6.15685 12.0373 7.14549 10.9828C9.10452 8.89313 12.1006 6.66667 16.0001 6.66667C19.8996 6.66667 22.8957 8.89313 24.8547 10.9828C25.8433 12.0373 26.5981 13.088 27.1058 13.8742C27.3603 14.2682 27.5544 14.5984 27.6862 14.8327C27.7521 14.95 27.8026 15.0434 27.8374 15.1092C27.8548 15.142 27.8683 15.168 27.8778 15.1866L27.8892 15.2088L27.8926 15.2156L27.8942 15.2188ZM4.10557 16.114C3.96481 15.8324 3.96481 15.501 4.10557 15.2195L5.00001 15.6667C4.11172 16.1109 4.10543 16.1136 4.10557 16.1139L4.10557 16.114ZM14.0002 15.6668C14.0002 14.5623 14.8957 13.6668 16.0002 13.6668C17.1048 13.6668 18.0002 14.5623 18.0002 15.6668C18.0002 16.7714 17.1048 17.6668 16.0002 17.6668C14.8957 17.6668 14.0002 16.7714 14.0002 15.6668ZM16.0002 11.6668C13.7911 11.6668 12.0002 13.4577 12.0002 15.6668C12.0002 17.876 13.7911 19.6669 16.0002 19.6669C18.2094 19.6669 20.0003 17.876 20.0003 15.6668C20.0003 13.4577 18.2094 11.6668 16.0002 11.6668Z" fill="#66A1FF"/>
</svg>
