<svg width="318" height="82" viewBox="0 0 318 82" fill="none" xmlns="http://www.w3.org/2000/svg">
<path fill-rule="evenodd" clip-rule="evenodd" d="M46.5189 43.2957C47.9072 44.7274 49.6709 46.3722 51.7136 47.8867C53.6835 50.4492 55.5413 53.4441 56.7745 56.7594C57.6874 59.2418 58.264 61.9164 58.264 64.7192C58.264 74.2324 50.5124 81.984 40.9991 81.984C35.2311 81.984 30.1106 79.1402 26.9729 74.7771C28.8406 74.4734 30.6682 73.8629 32.3737 72.9451C34.5462 75.2263 37.6106 76.6508 40.9991 76.6508C47.5816 76.6508 52.9148 71.3016 52.9148 64.7352C52.9148 61.7883 52.0019 57.2559 47.8859 51.7145C47.3894 51.0418 46.8448 50.3692 46.2523 49.6645C45.223 48.4511 44.1938 47.3821 43.2582 46.4778C43.2808 45.2907 43.3458 44.2553 43.4174 43.4377C44.2525 43.3711 45.3094 43.3114 46.5189 43.2957ZM57.5534 12.3563C58.0158 13.913 58.264 15.5606 58.264 17.2648C58.264 20.0516 57.7034 22.7262 56.7745 25.2246C55.5413 28.5559 53.6835 31.5508 51.7136 34.1133C49.6519 35.642 47.8681 37.3033 46.4732 38.7442C45.2822 38.7216 44.2417 38.6566 43.4174 38.585C43.3478 37.7577 43.2894 36.7065 43.2746 35.4998C44.711 34.1085 46.3642 32.3379 47.8859 30.2856C50.5925 26.634 52.9148 22.1016 52.9148 17.2648C52.9148 16.0135 52.7205 14.8065 52.3606 13.6721C53.9875 12.8344 55.7672 12.3959 57.5534 12.3563ZM55.0394 7.2272C51.9058 2.85547 46.7828 0 40.9991 0C31.4698 0 23.7343 7.75156 23.7343 17.2648C23.7343 20.0676 24.3109 22.7422 25.2238 25.2246C26.457 28.5398 28.3148 31.5508 30.2847 34.1133C32.3385 35.6361 34.1102 37.2905 35.502 38.7276C36.7059 38.7127 37.7549 38.6544 38.5807 38.585C38.6527 37.7566 38.718 36.71 38.7402 35.5119C37.3043 34.1187 35.6486 32.3438 34.1124 30.2856C31.3898 26.634 29.0835 22.1016 29.0835 17.2648C29.0835 10.6984 34.4327 5.34922 40.9991 5.34922C44.3898 5.34922 47.456 6.77552 49.6286 9.0592C51.3373 8.14032 53.1684 7.52981 55.0394 7.2272ZM24.4541 69.6603C23.9859 68.0947 23.7343 66.436 23.7343 64.7192C23.7343 61.9324 24.2948 59.2578 25.2238 56.7594C26.457 53.4441 28.3148 50.4492 30.2847 47.8867C30.9573 47.3902 31.63 46.8457 32.3347 46.2531C33.5398 45.2309 34.6026 44.2086 35.5029 43.2781C36.699 43.3004 37.7421 43.3657 38.5646 43.4377C38.6308 44.2677 38.6902 45.3167 38.7063 46.517C37.274 47.9057 35.628 49.6704 34.1124 51.7145C31.4058 55.366 29.0835 59.8984 29.0835 64.7352C29.0835 65.9931 29.2798 67.2064 29.6434 68.346C28.0178 69.183 26.2394 69.6205 24.4541 69.6603Z" fill="#0B0F15"/>
<path fill-rule="evenodd" clip-rule="evenodd" d="M63.3152 41.0487C65.7327 42.1537 68.0222 43.6429 69.9915 45.6282C76.702 52.3868 76.686 63.3415 69.9594 70.068C65.8915 74.12 60.302 75.7216 55.0169 74.8727C56.138 73.3352 57.0028 71.6055 57.5634 69.7477C60.6864 69.8118 63.8255 68.6587 66.1958 66.2884C70.8563 61.6598 70.8723 54.1005 66.2278 49.4399C62.8165 45.9966 57.9637 44.427 53.4634 43.7544C50.9489 43.37 48.5305 43.2739 46.5446 43.3059C45.3434 43.3219 44.2864 43.386 43.4536 43.4501C43.3895 44.2669 43.3255 45.3079 43.3094 46.493C43.2774 48.495 43.3575 50.9134 43.7258 53.4598C44.3825 57.9602 45.936 62.813 49.3473 66.2403C50.2602 67.1532 51.2852 67.8899 52.3743 68.4505C51.8137 70.1802 50.8528 71.7497 49.6036 73.0309C48.1462 72.2462 46.7848 71.2372 45.5516 70.004C43.5657 68.0341 42.0923 65.7278 40.9872 63.3094C40.9803 63.2943 40.9734 63.279 40.9665 63.2638C40.9613 63.275 40.9561 63.2862 40.951 63.2974C39.8459 65.7157 38.3564 68.006 36.3705 69.9759C29.6119 76.7024 18.6572 76.6704 11.9467 69.9278C5.23613 63.1853 5.25214 52.2306 12.0107 45.52C13.9807 43.5341 16.2869 42.0606 18.7053 40.9556C18.7128 40.9522 18.7203 40.9488 18.7278 40.9454C16.3145 39.8409 14.0292 38.3534 12.063 36.3712C5.33639 29.6286 5.36842 18.6739 12.111 11.9473C16.179 7.89538 21.7684 6.29382 27.0536 7.14265C25.9325 8.68015 25.0676 10.4098 24.5071 12.2676C21.3841 12.2036 18.245 13.3567 15.8747 15.727C11.2141 20.3555 11.1981 27.9149 15.8426 32.5755C17.9087 34.6735 21.7684 37.236 28.5911 38.261C29.4079 38.3891 30.2727 38.4852 31.1856 38.5653C32.7551 38.6934 34.2286 38.7255 35.5259 38.7094C36.7181 38.6936 37.7526 38.6303 38.5823 38.5667C38.7736 36.3541 38.9153 32.6001 38.3244 28.5595C38.3276 28.5346 38.3309 28.5096 38.3342 28.4847C37.6716 24.0043 36.1166 19.1844 32.7231 15.7751C31.8102 14.8622 30.7852 14.1255 29.6962 13.5649C30.2567 11.8352 31.2176 10.2657 32.4669 8.98444C33.9243 9.7532 35.2856 10.7622 36.5188 11.9954C38.4967 13.9573 39.9662 16.2528 41.0697 18.6604C42.1725 16.2602 43.6551 13.9878 45.6275 12.0313C52.3861 5.30476 63.3408 5.33679 70.0514 12.0794C76.7779 18.822 76.7459 29.7766 70.0033 36.4872C68.0351 38.4714 65.7312 39.944 63.3152 41.0487ZM53.4669 38.3255C57.9606 37.6669 62.8023 36.1128 66.2236 32.7075C70.8842 28.063 70.9002 20.5036 66.2557 15.8591C61.6271 11.1985 54.0678 11.1825 49.4072 15.827C47.3235 17.879 44.7815 21.7003 43.7428 28.4365C43.7479 28.4762 43.7529 28.5159 43.7579 28.5555C43.6298 29.3723 43.5337 30.2372 43.4536 31.1501C43.3255 32.7196 43.2934 34.193 43.3094 35.4903C43.3255 36.7075 43.3895 37.7485 43.4536 38.5813C43.7799 38.6133 44.142 38.6427 44.5358 38.6676C44.8216 38.685 45.1232 38.7005 45.4389 38.7135C45.78 38.7268 46.1385 38.7365 46.5126 38.7415C48.4985 38.7735 50.9329 38.6934 53.4634 38.3251C53.4645 38.3252 53.4657 38.3254 53.4669 38.3255ZM15.7424 66.1642C20.3709 70.8087 27.9303 70.8407 32.5908 66.1962C36.0182 62.7849 37.6037 57.9321 38.2603 53.4478C38.8689 49.4118 38.7408 45.6481 38.5646 43.438C36.3705 43.2458 32.6068 43.1017 28.5549 43.6942C24.0545 44.3509 19.2018 45.9044 15.7744 49.3157C11.1139 53.9442 11.0978 61.5036 15.7424 66.1642Z" fill="#0B0F15"/>
<path d="M9.04883 32.3676C8.13594 30.6539 7.51133 28.8281 7.22305 26.9543C2.85078 30.1094 0 35.2184 0 41C0 46.7496 2.81875 51.8426 7.14297 54.9816C7.44727 53.1078 8.05586 51.266 8.98477 49.5684C6.74258 47.4063 5.34922 44.3633 5.34922 41.016C5.34922 37.6047 6.77461 34.5457 9.04883 32.3676ZM74.857 27.0184C74.5527 28.8922 73.9441 30.734 73.0152 32.4477C75.2574 34.6098 76.6508 37.6527 76.6508 41C76.6508 44.3953 75.2254 47.4543 72.9512 49.6324C73.8641 51.3301 74.4887 53.1719 74.777 55.0457C79.1492 51.9067 82 46.7817 82 41.016C82 35.2504 79.1813 30.1574 74.857 27.0184ZM64.7352 29.0844C66.0324 29.0844 67.2656 29.2926 68.4348 29.677C69.2676 28.0434 69.7 26.2656 69.732 24.4719C68.1465 23.9914 66.4809 23.7352 64.7352 23.7352C55.6543 23.7352 47.8867 29.757 43.2742 34.3535C42.3934 35.2344 41.6246 36.0512 41 36.7719C40.3754 36.0512 39.6066 35.2344 38.7418 34.3695C34.1453 29.7731 26.3617 23.7352 17.2648 23.7352C15.5512 23.7352 13.9016 23.9914 12.348 24.4559C12.3801 26.2496 12.8285 28.0274 13.6613 29.6449C14.7984 29.2766 16.0156 29.0844 17.2648 29.0844C24.8242 29.0844 31.6309 34.7379 35.4906 38.7258C36.3234 39.5906 37.0281 40.3754 37.5727 41.016C37.0441 41.6406 36.3555 42.4254 35.5227 43.2742C34.6258 44.2031 33.5527 45.2442 32.3355 46.2692C25.8652 51.7785 20.5641 52.9317 17.2648 52.9317C15.9676 52.9317 14.7344 52.7234 13.5652 52.3391C12.7324 53.9727 12.3 55.7504 12.268 57.5441C13.8535 58.0246 15.5191 58.2809 17.2648 58.2809C26.3457 58.2809 34.1133 52.259 38.7098 47.6785C39.5906 46.7977 40.3594 45.9649 41 45.2442C41.6246 45.9649 42.3934 46.7817 43.2582 47.6465C47.8547 52.243 55.6383 58.2809 64.7352 58.2809C66.4488 58.2809 68.0984 58.0246 69.652 57.5602C69.6199 55.7664 69.1715 53.9887 68.3387 52.3711C67.2016 52.7395 65.9844 52.9317 64.7352 52.9317C57.1918 52.9317 50.3852 47.2942 46.5094 43.3063C45.6766 42.4414 44.9719 41.6567 44.4273 41.016C44.9559 40.3914 45.6605 39.6067 46.4934 38.7418C50.3531 34.7539 57.1758 29.0844 64.7352 29.0844Z" fill="#0B0F15"/>
<path d="M37.5725 41.0004C38.7096 42.4098 39.8467 43.8192 40.9998 45.2286C40.6795 45.5969 40.3432 45.9653 39.9909 46.3336C39.3983 46.9743 38.7897 47.5989 38.2131 48.1914C37.092 46.7821 35.9869 45.3567 34.8659 43.9473C35.4905 43.3227 36.1151 42.6661 36.7557 41.9614C37.044 41.625 37.3162 41.3207 37.5725 41.0004Z" fill="#0B0F15"/>
<path d="M44.4267 41.0002C43.2896 39.5909 42.1365 38.1815 40.9994 36.7721C41.3998 36.3077 41.8322 35.8432 42.2967 35.3627C42.7771 34.8662 43.2416 34.3858 43.722 33.9213C44.9552 35.2186 46.1724 36.5159 47.4056 37.8131C46.701 38.5018 45.9803 39.2545 45.2595 40.0553C44.9713 40.3756 44.699 40.6959 44.4267 41.0002Z" fill="#0B0F15"/>
<path opacity="0.5" d="M18.8662 29.164C18.3377 29.1159 17.8092 29.0839 17.2647 29.0839C16.0154 29.0839 14.7982 29.2761 13.6611 29.6445C12.8283 28.0109 12.3799 26.2491 12.3479 24.4554C13.5811 24.087 14.8783 23.8468 16.2236 23.7667L18.8662 29.164Z" fill="#0B0F15"/>
<path opacity="0.5" d="M9.04843 32.3673C7.95936 33.3923 7.0785 34.6255 6.43788 36.0028L3.66718 30.3493C4.67616 29.052 5.87733 27.9149 7.20663 26.954C7.52694 28.8278 8.13553 30.6696 9.04843 32.3673Z" fill="#0B0F15"/>
<path opacity="0.5" d="M63.1972 29.164C63.6777 29.0999 64.2222 29.0679 64.7988 29.0839C66.2562 29.0999 67.4894 29.3722 68.4343 29.6765C68.7707 29.0198 69.139 28.155 69.3953 27.082C69.6355 26.073 69.7156 25.1761 69.7156 24.4874C69.155 24.3113 68.5304 24.1351 67.8097 24.007C67.089 23.8788 66.4164 23.7988 65.8398 23.7667L63.1972 29.164Z" fill="#0B0F15"/>
<path opacity="0.5" d="M73.0158 32.4317C73.4482 32.8481 73.9447 33.3926 74.4251 34.0813C74.9376 34.802 75.29 35.4746 75.5622 36.0512C76.4911 34.1774 77.4361 32.3035 78.365 30.4137C77.9326 29.8531 77.404 29.2606 76.7794 28.636C76.1068 27.9793 75.4501 27.4508 74.8576 27.0184C74.7294 27.8192 74.5212 28.7641 74.1689 29.7891C73.8165 30.8141 73.4161 31.711 73.0158 32.4317Z" fill="#0B0F15"/>
<path opacity="0.5" d="M18.7072 52.8354C18.2268 52.8995 17.6982 52.9315 17.1057 52.9155C15.6803 52.8995 14.4791 52.6272 13.5822 52.3229C13.2619 52.9475 12.8936 53.7804 12.6373 54.8054C12.365 55.8624 12.285 56.8073 12.285 57.528C12.8295 57.6882 13.4541 57.8483 14.1428 57.9765C14.8475 58.1046 15.4881 58.1847 16.0646 58.2327L18.7072 52.8354Z" fill="#0B0F15"/>
<path opacity="0.5" d="M8.9844 49.5683C8.55198 49.1359 8.05549 48.5913 7.55901 47.9027C7.03049 47.166 6.66213 46.4773 6.40588 45.8847C5.47698 47.7585 4.53206 49.6484 3.60315 51.5222C4.01956 52.0667 4.53206 52.6753 5.15666 53.2999C5.86135 53.9886 6.55002 54.5492 7.15862 54.9656C7.28674 54.1328 7.51096 53.1398 7.89534 52.0507C8.21565 51.0738 8.61604 50.241 8.9844 49.5683Z" fill="#0B0F15"/>
<path opacity="0.5" d="M63.1972 52.8343C63.6777 52.8984 64.2222 52.9304 64.7988 52.9144C66.2082 52.8984 67.4093 52.6421 68.3382 52.3699C68.6585 52.9945 69.0269 53.8273 69.2832 54.8523C69.5554 55.9093 69.6195 56.8382 69.6195 57.5429C69.091 57.7031 68.4824 57.8632 67.8097 57.9914C67.089 58.1195 66.4164 58.1996 65.8398 58.2316L63.1972 52.8343Z" fill="#0B0F15"/>
<path opacity="0.5" d="M72.9517 49.6327C73.4161 49.2003 73.9446 48.6237 74.4571 47.903C74.9376 47.2304 75.29 46.5898 75.5462 46.0452C76.4751 47.903 77.42 49.7769 78.3489 51.6347C77.9165 52.1792 77.388 52.7878 76.7634 53.4124C76.0747 54.0851 75.4021 54.6296 74.7935 55.062C74.6653 54.2773 74.4732 53.3644 74.1368 52.3714C73.7685 51.2823 73.3521 50.3694 72.9517 49.6327Z" fill="#0B0F15"/>
<path d="M108.795 60.1016H117.249V32.0835L117.389 26.4939L117.249 26.3541L112.428 29.3586L106.978 32.6425L106 24.6773L121.232 14.6159H126.891V60.1016H135.136V67.0886H108.795V60.1016Z" fill="#0B0F15"/>
<path d="M180.729 41.0269C180.729 45.7781 180.356 49.8539 179.611 53.2543C178.865 56.6546 177.701 59.4494 176.117 61.6387C174.58 63.7814 172.6 65.3651 170.178 66.3899C167.803 67.3681 164.938 67.8572 161.584 67.8572C158.184 67.8572 155.272 67.3681 152.85 66.3899C150.475 65.3651 148.518 63.7814 146.981 61.6387C145.444 59.4494 144.303 56.6546 143.558 53.2543C142.859 49.8539 142.509 45.7781 142.509 41.0269C142.509 36.0894 142.859 31.9205 143.558 28.5201C144.303 25.0732 145.444 22.2784 146.981 20.1357C148.518 17.993 150.498 16.4558 152.92 15.5242C155.342 14.546 158.254 14.0569 161.654 14.0569C165.008 14.0569 167.872 14.546 170.248 15.5242C172.67 16.4558 174.65 17.993 176.187 20.1357C177.724 22.2784 178.865 25.0732 179.611 28.5201C180.356 31.9205 180.729 36.0894 180.729 41.0269ZM171.506 40.8872C171.506 37.0676 171.296 33.97 170.877 31.5944C170.504 29.1723 169.922 27.309 169.13 26.0048C168.338 24.654 167.313 23.7456 166.056 23.2798C164.798 22.7675 163.331 22.5113 161.654 22.5113C159.931 22.5113 158.44 22.7675 157.182 23.2798C155.925 23.7456 154.877 24.654 154.038 26.0048C153.246 27.3556 152.641 29.2421 152.221 31.6643C151.849 34.0399 151.663 37.1375 151.663 40.9571C151.663 44.8698 151.849 48.0373 152.221 50.4594C152.641 52.8816 153.246 54.7681 154.038 56.1189C154.877 57.4698 155.925 58.3781 157.182 58.8439C158.44 59.3097 159.931 59.5426 161.654 59.5426C163.331 59.5426 164.798 59.3097 166.056 58.8439C167.313 58.3315 168.338 57.3999 169.13 56.0491C169.922 54.6982 170.504 52.8117 170.877 50.3896C171.296 47.9208 171.506 44.7534 171.506 40.8872Z" fill="#0B0F15"/>
<path d="M222.967 41.0269C222.967 45.7781 222.595 49.8539 221.85 53.2543C221.104 56.6546 219.94 59.4494 218.356 61.6387C216.819 63.7814 214.839 65.3651 212.417 66.3899C210.041 67.3681 207.177 67.8572 203.823 67.8572C200.423 67.8572 197.511 67.3681 195.089 66.3899C192.714 65.3651 190.757 63.7814 189.22 61.6387C187.683 59.4494 186.542 56.6546 185.796 53.2543C185.098 49.8539 184.748 45.7781 184.748 41.0269C184.748 36.0894 185.098 31.9205 185.796 28.5201C186.542 25.0732 187.683 22.2784 189.22 20.1357C190.757 17.993 192.737 16.4558 195.159 15.5242C197.581 14.546 200.492 14.0569 203.893 14.0569C207.247 14.0569 210.111 14.546 212.487 15.5242C214.909 16.4558 216.889 17.993 218.426 20.1357C219.963 22.2784 221.104 25.0732 221.85 28.5201C222.595 31.9205 222.967 36.0894 222.967 41.0269ZM213.745 40.8872C213.745 37.0676 213.535 33.97 213.116 31.5944C212.743 29.1723 212.161 27.309 211.369 26.0048C210.577 24.654 209.552 23.7456 208.295 23.2798C207.037 22.7675 205.57 22.5113 203.893 22.5113C202.169 22.5113 200.679 22.7675 199.421 23.2798C198.163 23.7456 197.115 24.654 196.277 26.0048C195.485 27.3556 194.88 29.2421 194.46 31.6643C194.088 34.0399 193.901 37.1375 193.901 40.9571C193.901 44.8698 194.088 48.0373 194.46 50.4594C194.88 52.8816 195.485 54.7681 196.277 56.1189C197.115 57.4698 198.163 58.3781 199.421 58.8439C200.679 59.3097 202.169 59.5426 203.893 59.5426C205.57 59.5426 207.037 59.3097 208.295 58.8439C209.552 58.3315 210.577 57.3999 211.369 56.0491C212.161 54.6982 212.743 52.8117 213.116 50.3896C213.535 47.9208 213.745 44.7534 213.745 40.8872Z" fill="#0B0F15"/>
<path d="M275.477 67.0886V39.7693C275.477 37.2539 274.825 35.414 273.521 34.2495C272.217 33.0384 270.4 32.4329 268.071 32.4329C266.021 32.4329 264.321 32.9918 262.97 34.1098C261.62 35.2277 260.944 36.9512 260.944 39.2802V67.0886H252.071V39.2802C252.071 36.7648 251.395 34.9948 250.044 33.97C248.74 32.8987 247.04 32.363 244.944 32.363C243.453 32.363 242.009 32.7124 240.612 33.4111C239.261 34.1098 238.213 35.0414 237.468 36.2059V67.0886H228.594V25.2362L234.952 24.817L236.49 29.0092C237.934 27.5187 239.587 26.3774 241.45 25.5856C243.314 24.7471 245.27 24.3279 247.319 24.3279C252.676 24.3279 256.426 26.3309 258.569 30.3368C259.919 28.2406 261.596 26.7268 263.599 25.7952C265.649 24.817 267.931 24.3279 270.447 24.3279C272.496 24.3279 274.359 24.654 276.036 25.3061C277.76 25.9116 279.227 26.8665 280.438 28.1708C281.696 29.4284 282.651 31.0122 283.303 32.922C284.001 34.8318 284.351 37.0676 284.351 39.6295V67.0886H275.477Z" fill="#0B0F15"/>
<path d="M318 54.3023C318 56.3519 317.697 58.2151 317.092 59.8919C316.486 61.5688 315.555 63.0128 314.297 64.2239C313.039 65.3884 311.432 66.2967 309.476 66.9489C307.519 67.601 305.19 67.9271 302.489 67.9271C299.973 67.9271 297.598 67.6709 295.362 67.1585C293.173 66.6461 291.193 65.8542 289.423 64.7829L290.471 57.2369C292.101 58.3082 294.034 59.1234 296.27 59.6823C298.506 60.2413 300.579 60.5208 302.489 60.5208C305.051 60.5208 306.891 60.0084 308.009 58.9836C309.173 57.9589 309.755 56.6779 309.755 55.1408C309.755 53.7899 309.243 52.7419 308.218 51.9966C307.24 51.2513 305.982 50.5992 304.445 50.0402C302.908 49.4813 301.254 48.9456 299.484 48.4332C297.761 47.8742 296.131 47.1522 294.593 46.2672C293.056 45.3356 291.775 44.1245 290.751 42.634C289.772 41.1434 289.283 39.187 289.283 36.7648C289.283 33.085 290.564 30.1039 293.126 27.8214C295.688 25.4924 299.531 24.3279 304.655 24.3279C308.847 24.3279 312.736 25.1198 316.323 26.7035L315.555 34.1098C313.784 33.3645 311.898 32.8288 309.895 32.5027C307.939 32.1301 306.145 31.9438 304.515 31.9438C302.419 31.9438 300.765 32.3397 299.554 33.1316C298.39 33.9234 297.807 35.0181 297.807 36.4155C297.807 37.6732 298.297 38.6513 299.275 39.35C300.299 40.0022 301.557 40.5844 303.048 41.0968C304.538 41.6092 306.145 42.1449 307.869 42.7038C309.639 43.2162 311.269 43.9382 312.76 44.8698C314.25 45.7548 315.485 46.9426 316.463 48.4332C317.488 49.9238 318 51.8801 318 54.3023Z" fill="#0B0F15"/>
</svg>
