<svg width="761" height="185" viewBox="0 0 761 185" fill="none" xmlns="http://www.w3.org/2000/svg">
<rect y="20" width="16" height="113.937" fill="#24A791"/>
<rect x="123" y="20" width="16" height="113.937" fill="#24A791"/>
<rect width="139" height="15.9911" transform="matrix(1 0 0 -1 0 35.9911)" fill="#24A791"/>
<rect width="86.0291" height="15.9942" transform="matrix(0.808532 0.588453 -0.588881 0.80822 9.41895 120.944)" fill="#24A791"/>
<rect width="85.7175" height="15.9942" transform="matrix(0.808557 -0.588418 0.588846 0.808245 60.249 171.381)" fill="#24A791"/>
<path fill-rule="evenodd" clip-rule="evenodd" d="M114 44.9861H69V152.896V152.926H69.022L69 152.896L114 120.147V44.9861ZM114 139.929L96.1401 152.926H114V139.929Z" fill="#24A791"/>
<path d="M229.064 63.2505C221.374 63.2505 215.419 66.1509 211.2 71.9517C206.981 77.7085 204.872 85.7505 204.872 96.0776C204.872 117.567 212.936 128.312 229.064 128.312C235.832 128.312 244.027 126.62 253.651 123.236V140.375C245.741 143.67 236.908 145.318 227.152 145.318C213.134 145.318 202.411 141.078 194.984 132.596C187.558 124.071 183.844 111.854 183.844 95.9458C183.844 85.9263 185.668 77.1592 189.315 69.6445C192.963 62.0859 198.192 56.3071 205.004 52.3081C211.859 48.2651 219.879 46.2437 229.064 46.2437C238.424 46.2437 247.829 48.5068 257.277 53.0332L250.685 69.6445C247.082 67.9307 243.456 66.4365 239.809 65.1621C236.161 63.8877 232.58 63.2505 229.064 63.2505ZM292.741 144H272.636V41.4316H292.741V144ZM360.702 144L356.813 133.98H356.286C352.902 138.243 349.408 141.209 345.805 142.879C342.245 144.505 337.587 145.318 331.83 145.318C324.755 145.318 319.174 143.297 315.087 139.254C311.044 135.211 309.022 129.454 309.022 121.983C309.022 114.161 311.747 108.404 317.196 104.713C322.689 100.978 330.951 98.9121 341.981 98.5166L354.77 98.1211V94.8911C354.77 87.4204 350.946 83.6851 343.3 83.6851C337.411 83.6851 330.49 85.4648 322.536 89.0244L315.878 75.4453C324.359 71.0068 333.764 68.7876 344.091 68.7876C353.979 68.7876 361.559 70.9409 366.833 75.2476C372.106 79.5542 374.743 86.1021 374.743 94.8911V144H360.702ZM354.77 109.854L346.991 110.118C341.146 110.294 336.796 111.349 333.939 113.282C331.083 115.216 329.655 118.16 329.655 122.115C329.655 127.784 332.907 130.619 339.411 130.619C344.069 130.619 347.782 129.278 350.551 126.598C353.363 123.917 354.77 120.357 354.77 115.919V109.854ZM435.98 145.318C427.323 145.318 420.534 142.176 415.612 135.892H414.557C415.26 142.044 415.612 145.604 415.612 146.571V176.432H395.507V70.3037H411.854L414.689 79.8618H415.612C420.314 72.5669 427.279 68.9194 436.508 68.9194C445.209 68.9194 452.021 72.2812 456.942 79.0049C461.864 85.7285 464.325 95.0669 464.325 107.02C464.325 114.886 463.161 121.72 460.832 127.521C458.546 133.321 455.272 137.738 451.01 140.77C446.747 143.802 441.737 145.318 435.98 145.318ZM430.048 85.0034C425.082 85.0034 421.457 86.5415 419.171 89.6177C416.886 92.6499 415.7 97.6816 415.612 104.713V106.888C415.612 114.798 416.776 120.467 419.105 123.895C421.479 127.323 425.214 129.037 430.312 129.037C439.32 129.037 443.825 121.61 443.825 106.756C443.825 99.5054 442.704 94.0781 440.463 90.4746C438.266 86.8271 434.794 85.0034 430.048 85.0034ZM480.08 51.2534C480.08 44.7056 483.727 41.4316 491.022 41.4316C498.317 41.4316 501.964 44.7056 501.964 51.2534C501.964 54.3735 501.042 56.8125 499.196 58.5703C497.394 60.2842 494.669 61.1411 491.022 61.1411C483.727 61.1411 480.08 57.8452 480.08 51.2534ZM501.042 144H480.937V70.3037H501.042V144ZM590.229 144H570.124V100.956C570.124 95.6382 569.179 91.6611 567.289 89.0244C565.399 86.3438 562.389 85.0034 558.258 85.0034C552.633 85.0034 548.568 86.8931 546.063 90.6724C543.559 94.4077 542.306 100.626 542.306 109.327V144H522.201V70.3037H537.56L540.263 79.73H541.383C543.625 76.1704 546.701 73.4897 550.612 71.688C554.567 69.8423 559.049 68.9194 564.059 68.9194C572.628 68.9194 579.132 71.2485 583.571 75.9067C588.009 80.521 590.229 87.2007 590.229 95.9458V144ZM675.065 70.3037V80.521L663.529 83.4873C665.639 86.7832 666.693 90.4746 666.693 94.5615C666.693 102.472 663.925 108.646 658.388 113.084C652.895 117.479 645.248 119.676 635.448 119.676L631.823 119.479L628.856 119.149C626.791 120.731 625.758 122.489 625.758 124.422C625.758 127.323 629.45 128.773 636.833 128.773H649.357C657.443 128.773 663.595 130.509 667.814 133.98C672.077 137.452 674.208 142.55 674.208 149.273C674.208 157.887 670.604 164.566 663.397 169.312C656.234 174.059 645.929 176.432 632.482 176.432C622.199 176.432 614.333 174.63 608.883 171.026C603.478 167.467 600.775 162.457 600.775 155.997C600.775 151.559 602.16 147.845 604.928 144.857C607.697 141.869 611.762 139.737 617.123 138.463C615.058 137.584 613.256 136.156 611.718 134.178C610.18 132.157 609.411 130.025 609.411 127.784C609.411 124.972 610.224 122.643 611.85 120.797C613.476 118.907 615.827 117.062 618.903 115.26C615.036 113.59 611.959 110.909 609.674 107.218C607.433 103.526 606.312 99.1758 606.312 94.166C606.312 86.124 608.927 79.9058 614.157 75.5112C619.386 71.1167 626.857 68.9194 636.569 68.9194C638.634 68.9194 641.073 69.1172 643.886 69.5127C646.742 69.8643 648.566 70.1279 649.357 70.3037H675.065ZM618.178 154.415C618.178 157.184 619.496 159.359 622.133 160.941C624.813 162.523 628.549 163.314 633.339 163.314C640.546 163.314 646.193 162.325 650.28 160.348C654.367 158.37 656.41 155.667 656.41 152.24C656.41 149.471 655.202 147.56 652.785 146.505C650.368 145.45 646.632 144.923 641.579 144.923H631.164C627.472 144.923 624.374 145.78 621.869 147.494C619.408 149.251 618.178 151.559 618.178 154.415ZM625.495 94.4297C625.495 98.4287 626.396 101.593 628.197 103.922C630.043 106.251 632.833 107.416 636.569 107.416C640.348 107.416 643.117 106.251 644.875 103.922C646.632 101.593 647.511 98.4287 647.511 94.4297C647.511 85.5527 643.864 81.1143 636.569 81.1143C629.186 81.1143 625.495 85.5527 625.495 94.4297ZM703.278 107.02C703.278 114.315 704.464 119.83 706.837 123.565C709.254 127.301 713.166 129.168 718.571 129.168C723.932 129.168 727.777 127.323 730.106 123.631C732.479 119.896 733.666 114.359 733.666 107.02C733.666 99.7251 732.479 94.2539 730.106 90.6064C727.733 86.959 723.844 85.1353 718.439 85.1353C713.078 85.1353 709.21 86.959 706.837 90.6064C704.464 94.21 703.278 99.6812 703.278 107.02ZM754.232 107.02C754.232 119.017 751.068 128.399 744.74 135.167C738.412 141.935 729.601 145.318 718.307 145.318C711.232 145.318 704.992 143.78 699.586 140.704C694.181 137.584 690.028 133.124 687.128 127.323C684.228 121.522 682.777 114.754 682.777 107.02C682.777 94.979 685.919 85.6187 692.204 78.939C698.488 72.2593 707.321 68.9194 718.703 68.9194C725.778 68.9194 732.018 70.4575 737.423 73.5337C742.829 76.6099 746.981 81.0264 749.882 86.7832C752.782 92.54 754.232 99.2856 754.232 107.02Z" fill="#24A791"/>
</svg>
